<?xml version="1.0" standalone="no"?>
<!DOCTYPE svg PUBLIC "-//W3C//DTD SVG 20010904//EN"
 "http://www.w3.org/TR/2001/REC-SVG-20010904/DTD/svg10.dtd">
<svg version="1.0" xmlns="http://www.w3.org/2000/svg"
 width="512.000000pt" height="512.000000pt" viewBox="0 0 512.000000 512.000000"
 preserveAspectRatio="xMidYMid meet">
<metadata>
Created by potrace 1.11, written by Peter Selinger 2001-2013
</metadata>
<g transform="translate(0.000000,512.000000) scale(0.100000,-0.100000)"
fill="#000000" stroke="none">
<path d="M3415 4971 c-11 -5 -24 -6 -28 -4 -4 3 -14 0 -21 -6 -7 -6 -22 -9
-34 -6 -12 2 -22 1 -22 -3 0 -4 -12 -9 -26 -10 -15 -1 -32 -6 -39 -12 -6 -5
-14 -7 -17 -4 -5 5 -69 -20 -128 -51 -14 -7 -33 -11 -43 -10 -10 2 -14 -1 -10
-8 4 -6 0 -8 -10 -4 -10 3 -17 3 -17 -2 0 -5 -13 -14 -30 -21 -16 -7 -28 -16
-25 -19 2 -4 -1 -8 -8 -8 -17 0 -67 -33 -67 -44 0 -5 -3 -8 -7 -7 -8 2 -57
-27 -79 -47 -32 -28 -54 -44 -54 -40 0 3 -20 -17 -44 -44 -24 -27 -46 -47 -49
-45 -3 3 -8 -4 -12 -15 -3 -12 -11 -19 -16 -16 -5 4 -9 1 -9 -4 0 -6 -11 -21
-25 -33 -14 -12 -25 -26 -25 -31 0 -5 -10 -18 -22 -28 -11 -11 -17 -19 -12
-19 5 0 2 -6 -7 -13 -9 -7 -23 -26 -32 -43 -9 -17 -23 -36 -31 -43 -9 -7 -13
-17 -10 -22 3 -5 0 -9 -5 -9 -6 0 -10 -3 -9 -7 2 -11 -35 -87 -45 -91 -4 -2
-5 -8 -1 -13 3 -5 0 -9 -6 -9 -6 0 -8 -4 -5 -10 3 -5 1 -10 -5 -10 -6 0 -9 -4
-6 -9 3 -5 -1 -21 -9 -37 -7 -15 -12 -31 -9 -36 3 -4 0 -8 -6 -8 -7 0 -10 -7
-6 -15 3 -8 -1 -18 -9 -22 -7 -5 -15 -12 -17 -18 -2 -5 -7 -10 -13 -10 -11 -1
-150 -65 -207 -96 -21 -11 -42 -17 -48 -14 -5 3 -10 2 -10 -3 0 -4 -22 -18
-49 -30 -46 -20 -82 -20 -107 -1 -6 5 -20 7 -32 4 -12 -2 -22 0 -22 5 0 4 -8
7 -17 5 -10 -1 -29 3 -43 10 -14 7 -31 10 -38 8 -7 -3 -20 -2 -30 3 -20 9
-432 12 -432 3 0 -6 -71 -20 -102 -20 -10 0 -18 -4 -18 -8 0 -4 -10 -7 -22 -8
-33 -1 -68 -14 -68 -25 0 -5 -5 -6 -11 -3 -5 4 -27 -1 -47 -10 -20 -9 -46 -20
-57 -24 -49 -20 -121 -57 -133 -68 -7 -7 -20 -13 -28 -13 -8 0 -14 -5 -14 -11
0 -6 -7 -8 -17 -5 -10 4 -14 4 -11 0 7 -7 -33 -44 -49 -44 -4 0 -28 -18 -53
-40 -25 -22 -51 -45 -58 -51 -7 -5 -10 -14 -7 -19 3 -6 0 -7 -8 -5 -7 3 -19
-5 -27 -20 -7 -14 -18 -25 -24 -25 -6 0 -20 -13 -31 -29 -10 -16 -24 -27 -29
-24 -5 4 -7 -1 -3 -10 3 -10 3 -17 -2 -17 -11 0 -61 -47 -55 -53 2 -2 -2 -10
-11 -17 -8 -7 -15 -17 -15 -22 0 -5 -7 -16 -15 -25 -8 -8 -12 -19 -9 -25 4 -6
3 -8 -3 -5 -5 3 -18 -11 -28 -31 -11 -20 -24 -40 -28 -43 -5 -3 -8 -8 -7 -10
4 -10 -13 -59 -21 -59 -5 0 -9 -4 -9 -9 0 -5 -8 -26 -17 -47 -9 -22 -17 -41
-18 -44 0 -3 -4 -11 -8 -17 -5 -7 -5 -17 -2 -23 3 -5 -1 -10 -11 -10 -13 0
-14 -3 -5 -14 9 -11 9 -17 -2 -27 -8 -8 -12 -21 -9 -31 2 -10 0 -24 -5 -31 -5
-6 -8 -22 -7 -34 0 -13 -2 -23 -6 -23 -5 0 -7 -13 -6 -30 1 -16 -2 -30 -7 -30
-10 0 -4 -404 7 -440 5 -14 10 -36 12 -50 4 -29 23 -108 31 -130 3 -8 7 -19 9
-25 2 -5 9 -26 17 -45 37 -92 51 -120 59 -120 4 0 8 -6 8 -14 0 -18 39 -91 62
-116 10 -10 18 -23 18 -29 0 -5 13 -23 29 -40 16 -17 27 -31 24 -31 -2 0 2 -7
11 -15 8 -8 19 -15 25 -15 6 0 10 -3 10 -7 -3 -20 2 -34 11 -28 6 3 10 -1 10
-9 0 -9 7 -16 17 -16 9 0 14 -3 10 -6 -7 -7 83 -94 98 -94 5 0 19 -14 30 -30
11 -16 27 -30 36 -30 9 0 20 -7 23 -16 4 -9 9 -14 12 -11 6 6 17 -2 54 -35 10
-9 27 -18 37 -20 10 -2 25 -11 34 -20 9 -10 24 -18 33 -18 9 0 16 -3 16 -8 0
-8 65 -33 93 -35 9 -1 17 -5 17 -9 0 -4 3 -7 8 -6 4 1 17 -3 29 -10 12 -6 32
-14 45 -16 13 -3 23 -5 23 -6 0 -2 36 -10 58 -12 9 -1 17 -5 17 -8 0 -3 19 -7
42 -9 23 -1 45 -5 48 -9 8 -11 430 -9 430 2 0 5 2 7 5 4 5 -5 43 1 110 19 11
3 30 5 43 6 12 1 22 5 22 11 0 5 3 7 6 3 3 -3 17 -2 31 4 18 7 35 4 66 -10 23
-10 70 -31 105 -46 34 -15 62 -32 62 -37 0 -5 5 -6 10 -3 6 4 17 1 25 -5 8 -7
15 -9 15 -6 0 4 13 -2 29 -13 15 -11 31 -18 35 -14 3 3 6 1 6 -6 0 -7 5 -9 10
-6 6 3 10 1 10 -6 0 -6 8 -9 19 -6 18 4 25 -5 36 -48 1 -5 3 -13 5 -17 1 -5 3
-11 5 -15 4 -16 18 -50 46 -111 16 -34 29 -67 29 -72 0 -6 5 -10 10 -10 6 0
10 -7 10 -15 0 -8 8 -23 18 -33 10 -10 16 -24 14 -30 -2 -7 2 -12 10 -12 12 0
45 -57 40 -72 -1 -4 7 -10 18 -13 11 -4 20 -12 20 -20 0 -7 14 -25 30 -38 17
-14 30 -31 30 -37 0 -6 4 -9 9 -5 5 3 12 -4 16 -15 3 -11 10 -20 15 -20 11 0
80 -70 80 -81 0 -5 6 -9 13 -9 7 0 24 -11 39 -24 14 -14 28 -22 32 -19 3 3 8
-2 12 -11 3 -9 10 -16 16 -16 18 0 78 -47 70 -55 -4 -5 -2 -5 5 -2 6 4 18 1
26 -7 8 -8 17 -12 21 -9 3 4 6 2 6 -4 0 -10 46 -28 63 -25 4 1 7 -3 7 -9 0 -6
6 -9 12 -7 7 3 18 -1 25 -7 6 -7 32 -19 57 -26 26 -7 46 -16 46 -20 0 -4 11
-6 24 -5 14 2 27 -2 30 -9 2 -8 15 -11 30 -8 14 3 26 1 26 -5 0 -5 10 -10 23
-11 67 -3 97 -7 97 -14 0 -4 93 -6 208 -4 200 4 229 6 262 19 8 4 23 7 33 8
56 4 67 6 67 13 0 4 14 7 30 7 17 0 30 5 30 11 0 5 5 7 10 4 6 -3 10 -1 10 4
0 6 3 10 8 9 4 -1 21 3 37 8 17 6 33 12 38 12 4 1 31 14 60 29 28 15 55 26 60
25 4 -1 7 3 7 8 0 6 6 10 13 10 7 0 23 9 35 20 12 11 24 20 27 20 8 0 69 44
73 53 2 4 9 7 16 7 6 0 33 23 59 50 26 28 52 50 59 50 6 0 9 3 6 6 -3 3 24 35
61 72 65 64 128 148 123 165 -1 4 3 7 8 7 6 0 15 11 20 25 5 14 14 25 20 25 5
0 9 3 8 8 -1 4 3 17 10 28 6 12 8 25 4 29 -4 5 -1 5 6 1 6 -4 13 -2 13 3 3 20
5 26 19 51 7 14 12 25 11 25 -1 0 3 14 10 30 7 17 14 39 16 50 2 10 7 22 11
25 8 5 28 84 38 149 3 14 8 37 11 51 7 24 9 400 4 458 -2 15 -6 32 -10 37 -3
6 -6 19 -7 30 -1 11 -4 27 -8 36 -4 9 -6 20 -5 25 2 14 -13 54 -20 54 -4 0 -8
9 -9 20 -4 43 -6 50 -14 50 -4 0 -8 9 -8 19 0 11 -4 23 -10 26 -5 3 -10 17
-10 31 0 13 -4 24 -10 24 -5 0 -10 7 -10 15 0 8 -5 15 -11 15 -5 0 -7 4 -4 10
5 9 -22 55 -52 88 -7 7 -13 20 -13 28 0 8 -4 14 -10 14 -5 0 -10 6 -10 14 0 8
-7 17 -16 20 -8 3 -13 10 -10 14 3 5 -3 16 -12 25 -9 8 -21 22 -27 29 -30 40
-84 96 -89 91 -3 -3 -11 6 -17 21 -7 14 -17 26 -24 26 -6 0 -18 11 -25 25 -7
14 -19 25 -27 25 -7 0 -13 5 -13 10 0 6 -8 10 -17 11 -11 0 -13 3 -5 6 6 2 10
8 7 13 -3 5 3 11 13 14 11 4 43 31 71 61 29 30 57 55 63 55 6 0 9 3 5 6 -3 3
10 19 29 36 19 16 32 33 30 37 -3 4 6 15 19 25 14 10 22 22 19 27 -3 5 2 12
10 15 9 3 16 12 16 18 0 7 6 18 13 24 6 7 12 18 12 25 1 7 6 11 13 9 7 -1 12
5 12 14 0 8 7 22 15 31 8 8 13 19 10 24 -4 5 -2 9 3 9 10 0 45 79 42 94 -1 5
3 12 9 15 6 4 12 17 14 30 2 12 8 26 13 29 9 7 15 29 18 62 0 8 4 18 8 21 5 3
9 17 10 32 1 15 6 27 10 27 4 0 5 10 3 22 -3 12 0 26 5 33 5 6 7 23 6 38 -2
15 1 27 6 27 6 0 8 82 5 208 -4 185 -9 257 -17 257 -1 0 -4 9 -5 20 -6 40 -16
89 -21 97 -3 4 -7 16 -9 25 -7 37 -10 48 -15 53 -7 7 -32 73 -33 88 0 6 -4 12
-9 12 -5 0 -6 5 -3 10 3 6 1 10 -4 10 -6 0 -11 7 -11 15 0 8 -4 15 -8 15 -4 0
-9 10 -9 22 -1 13 -7 24 -13 26 -5 2 -10 10 -10 18 0 8 -4 14 -8 14 -8 0 -25
30 -32 55 -1 6 -11 16 -22 23 -10 7 -16 18 -13 23 4 5 -1 12 -9 15 -9 3 -16
11 -16 17 0 5 -18 27 -39 48 -22 20 -37 40 -34 43 4 3 2 6 -4 6 -14 0 -163
148 -163 161 0 6 -5 7 -12 3 -6 -4 -17 1 -25 11 -7 11 -13 15 -13 11 0 -4 -7
-1 -15 6 -34 31 -43 36 -49 31 -3 -4 -6 -1 -6 5 0 7 -7 12 -15 12 -8 0 -15 5
-15 10 0 6 -7 10 -15 10 -8 0 -15 4 -15 8 0 5 -18 15 -40 22 -22 7 -40 17 -40
22 0 4 -3 7 -7 7 -5 -1 -11 0 -15 1 -5 1 -11 3 -15 5 -5 1 -25 9 -45 18 -21
10 -44 17 -53 17 -8 0 -15 4 -15 9 0 8 -85 27 -102 23 -5 -1 -8 2 -8 7 0 5
-13 7 -30 6 -16 -1 -30 1 -30 6 0 11 4 10 -250 15 -113 1 -214 -1 -225 -5z"/>
</g>
</svg>
