<?xml version="1.0" encoding="utf-8"?>
<!-- Generator: Adobe Illustrator 17.1.0, SVG Export Plug-In . SVG Version: 6.00 Build 0)  -->
<!DOCTYPE svg PUBLIC "-//W3C//DTD SVG 1.1//EN" "http://www.w3.org/Graphics/SVG/1.1/DTD/svg11.dtd">
<svg version="1.1" id="Layer_1" xmlns="http://www.w3.org/2000/svg" xmlns:xlink="http://www.w3.org/1999/xlink" x="0px" y="0px"
	 viewBox="0 0 20 20" enable-background="new 0 0 20 20" xml:space="preserve">
<g>
	<g>
		<path d="M7,10V6H3v4H1l4,5l4-5H7z M17,1H8C6.895,1,6,1.895,6,3v2h2v4h1.484c0.712,0,1.069,0.861,0.565,1.364L6,15.414V16
			c0,1.105,0.895,2,2,2h9c1.105,0,2-0.895,2-2V3C19,1.895,18.105,1,17,1z M8,4C7.448,4,7,3.552,7,3s0.448-1,1-1s1,0.448,1,1
			S8.552,4,8,4z M8,17c-0.552,0-1-0.448-1-1s0.448-1,1-1s1,0.448,1,1S8.552,17,8,17z M14,4h-3c-0.552,0-1-0.448-1-1s0.448-1,1-1h3
			c0.552,0,1,0.448,1,1S14.552,4,14,4z M17,17c-0.552,0-1-0.448-1-1s0.448-1,1-1s1,0.448,1,1S17.552,17,17,17z M17,10
			c-0.552,0-1-0.448-1-1s0.448-1,1-1s1,0.448,1,1S17.552,10,17,10z M17,4c-0.552,0-1-0.448-1-1s0.448-1,1-1s1,0.448,1,1
			S17.552,4,17,4z"/>
	</g>
</g>
</svg>
